# xmcd
#
# Track frame offsets:
#	150
#	17760
#	38485
#	54452
#	69812
#	86917
#	107115
#	119970
#	134737
#	155387
#	170757
#
# Disc length: 2470 seconds
#
# Revision: 0
# Processed by: cddbd v1.5.2PL0 Copyright (c) Steve Scherf et al.
# Submitted via: EasyCDDAExtractor 12.0.1.1
#
DISCID=9909a40b
DTITLE=Lissette - Salvaje
DYEAR=1983
DGENRE=Latin
TTITLE0=Salvaje
TTITLE1=El
TTITLE2=Te Pido Que Vuelvas
TTITLE3=Si Me Quieres Olvidar
TTITLE4=Solo Una Cancion (Do Re Mi Fa Sol)
TTITLE5=Loca De Alegria
TTITLE6=La Noche
TTITLE7=Suspenso
TTITLE8=Con Todo El Amor Que Yo Puedo
TTITLE9=Si Un Dia Te Sientes Solo
TTITLE10=Primera Actriz (Bonus Track)
EXTD=
EXTT0=
EXTT1=
EXTT2=
EXTT3=
EXTT4=
EXTT5=
EXTT6=
EXTT7=
EXTT8=
EXTT9=
EXTT10=
PLAYORDER=
